<svg xmlns="http://www.w3.org/2000/svg" width="880" height="840" viewBox="0 0 880 840">
    <defs>
        <linearGradient id="0mhkhc4y5a" x1="-.132" y1=".917" x2=".577" y2=".321" gradientUnits="objectBoundingBox">
            <stop offset="0" stop-color="#efe7ff"/>
            <stop offset="1" stop-color="#e1d3ff"/>
        </linearGradient>
        <linearGradient id="mym8scy4pb" x1=".649" x2="-.157" gradientUnits="objectBoundingBox">
            <stop offset="0" stop-color="#c7acfb"/>
            <stop offset="1" stop-color="#d0bafe"/>
        </linearGradient>
        <linearGradient id="3o50webtdc" x1="-.132" y1=".917" x2=".577" y2=".321" gradientUnits="objectBoundingBox">
            <stop offset="0" stop-color="#f2ebff"/>
            <stop offset="1" stop-color="#e5d8ff"/>
        </linearGradient>
        <linearGradient id="ie0lqgwkmd" x1=".649" x2="-.157" gradientUnits="objectBoundingBox">
            <stop offset="0" stop-color="#c8abff"/>
            <stop offset="1" stop-color="#d0bafe"/>
        </linearGradient>
        <linearGradient id="369jc2qore" x1=".5" x2=".5" y2="1" gradientUnits="objectBoundingBox">
            <stop offset="0" stop-color="#ffcacf"/>
            <stop offset="1" stop-color="#ffd8dc"/>
        </linearGradient>
        <linearGradient id="6bynkb8euf" x1="-.33" x2=".615" gradientUnits="objectBoundingBox">
            <stop offset="0" stop-color="#fcb2bb"/>
            <stop offset="1" stop-color="#f598a8"/>
        </linearGradient>
        <linearGradient id="cpfdwsp37g" x1=".5" x2=".5" y2="1" gradientUnits="objectBoundingBox">
            <stop offset="0" stop-color="#ffccd1"/>
            <stop offset="1" stop-color="#ffd8dc"/>
        </linearGradient>
    </defs>
    <g data-name="그룹 2990">
        <g data-name="그룹 2839">
            <path data-name="패스 178" d="M1310.424 981.911c-17.012-8.76-33.513-22.4-40.73-40.906-3.1-7.963-4.505-16.4-5.58-24.829-1.124-8.946-1.643-17.9-1.871-26.846-.382-13.166-.1-26.333-.05-39.5.14-32.75.189-99.094.23-149.98-8.9.236-17.76.8-26.669 1.927-8.291 1.123-16.589 2.529-24.416 5.668-18.191 7.353-31.591 24.129-40.216 41.419a41.2 41.2 0 0 0-2.3 4.165v136.488c0 52.52 41.768 95.207 93.424 95.3 18.038.048 36.09 0 53.664-.187-1.5 0-4.174-2.016-5.483-2.717" transform="translate(-912.64 -570.808)" style="fill:url(#0mhkhc4y5a);opacity:.85"/>
            <path data-name="패스 179" d="M1447.017 754.584c-1.081-8.433-2.489-16.866-5.582-24.829-7.216-18.46-23.716-32.146-40.729-40.905-1.356-.7-3.986-2.668-5.483-2.668 1.782-.049 3.516-.049 5.3-.049h-138.091c-51.656 0-93.6 42.541-93.693 95.061 0 18.419 0 36.734.187 54.634a3.939 3.939 0 0 1 .374-1.454 41.622 41.622 0 0 1 2.295-4.165c8.624-17.29 22.032-34.066 40.218-41.419 7.825-3.139 16.124-4.546 24.422-5.668a267.22 267.22 0 0 1 26.67-1.927c12.846-.374 25.685-.089 38.531-.041 38.012.139 102.228.187 147.456.229-.229-8.946-.791-17.892-1.872-26.8" transform="translate(-913.122 -652.148)" style="fill:url(#mym8scy4pb)"/>
            <path data-name="패스 180" d="M1269.84 686.16c-21.138-.091-42.422-.091-63.136.145-1.781 0-3.521 0-5.3.041 1.5 0 4.125 1.968 5.483 2.676 17.013 8.759 33.513 22.438 40.728 40.9 3.094 7.969 4.5 16.4 5.583 24.829 1.074 8.912 1.636 17.858 1.872 26.812.374 13.166.1 26.374.047 39.541-.139 32.694-.185 98.817-.236 149.6a244.778 244.778 0 0 0 26.345-1.878c8.3-1.074 16.589-2.522 24.424-5.662 18.183-7.31 31.591-24.128 40.214-41.419.651-1.261 2.384-3.707 2.62-5.293V766.378c0-44.226-35.156-80.072-78.648-80.218" transform="translate(-719.306 -652.323)" style="fill:url(#3o50webtdc);opacity:.85"/>
            <path data-name="패스 181" d="M1461.932 719.3a.758.758 0 0 1-.048.326c-.236 1.594-1.97 4.033-2.622 5.294-8.623 17.289-22.031 34.115-40.215 41.419-7.834 3.139-16.126 4.595-24.423 5.669a246.512 246.512 0 0 1-26.343 1.878c-1.871.09-185.987.139-185.987.139.238 8.953.749 17.9 1.872 26.846 1.081 8.433 2.483 16.867 5.58 24.836 7.217 18.5 23.717 32.14 40.729 40.9 1.31.708 3.985 2.717 5.483 2.717h132.273c32.388 0 60.889-16.722 77.714-42.119a95.859 95.859 0 0 0 16.173-53.268c.05-18.371 0-36.734-.187-54.634" transform="translate(-832.955 -455.288)" style="fill:url(#ie0lqgwkmd)"/>
        </g>
    </g>
    <g data-name="그룹 2998">
        <g data-name="그룹 2839">
            <path data-name="패스 178" d="M1310.152 981.786c-16.979-8.756-33.452-22.386-40.652-40.886-3.092-7.959-4.5-16.388-5.569-24.818-1.122-8.942-1.64-17.892-1.868-26.834-.381-13.16-.1-26.321-.051-39.482.14-32.735.188-99.05.23-149.913a266.663 266.663 0 0 0-26.618 1.926c-8.275 1.123-16.557 2.528-24.369 5.666-18.156 7.35-31.531 24.119-40.139 41.4a41.27 41.27 0 0 0-2.3 4.163v136.425c0 52.5 41.688 95.165 93.245 95.255 18 .048 36.021 0 53.561-.187-1.494 0-4.166-2.016-5.472-2.716" transform="translate(-719.55 -178.923)" style="fill:url(#369jc2qore)"/>
            <path data-name="패스 179" d="M1446.483 754.554c-1.079-8.429-2.484-16.859-5.571-24.818-7.2-18.452-23.67-32.132-40.651-40.887-1.354-.7-3.979-2.667-5.472-2.667 1.779-.049 3.509-.049 5.287-.049h-137.824c-51.557 0-93.424 42.522-93.513 95.019 0 18.411 0 36.718.187 54.61a3.944 3.944 0 0 1 .373-1.454 41.594 41.594 0 0 1 2.29-4.163c8.608-17.282 21.99-34.051 40.141-41.4 7.81-3.138 16.092-4.544 24.375-5.665a266.325 266.325 0 0 1 26.619-1.927c12.821-.374 25.636-.089 38.457-.041 37.94.139 102.032.187 147.173.229-.229-8.942-.789-17.885-1.868-26.785" transform="translate(-720.031 -260.22)" style="fill:url(#6bynkb8euf)"/>
            <path data-name="패스 180" d="M1269.708 686.16c-21.1-.091-42.34-.091-63.015.145-1.778 0-3.514 0-5.286.041 1.494 0 4.117 1.967 5.472 2.674 16.98 8.755 33.448 22.428 40.65 40.88 3.088 7.966 4.492 16.388 5.572 24.818 1.072 8.908 1.633 17.85 1.868 26.8.373 13.16.1 26.362.047 39.523-.139 32.68-.185 98.773-.236 149.531a243.9 243.9 0 0 0 26.294-1.877c8.282-1.073 16.558-2.521 24.377-5.659 18.148-7.307 31.531-24.117 40.137-41.4.65-1.26 2.38-3.706 2.615-5.291v-150c0-44.206-35.088-80.037-78.5-80.182" transform="translate(-526.65 -260.395)" style="fill:url(#cpfdwsp37g)"/>
            <path data-name="패스 181" d="M1461.4 719.3a.76.76 0 0 1-.048.326c-.236 1.593-1.966 4.031-2.617 5.292-8.606 17.281-21.988 34.1-40.138 41.4-7.819 3.137-16.095 4.593-24.376 5.666a245.694 245.694 0 0 1-26.293 1.877c-1.868.09-185.63.139-185.63.139.237 8.949.748 17.891 1.869 26.834 1.079 8.429 2.478 16.859 5.569 24.825 7.2 18.494 23.672 32.126 40.651 40.88 1.308.707 3.978 2.716 5.473 2.716h132.019c32.326 0 60.772-16.714 77.565-42.1a95.917 95.917 0 0 0 16.142-53.245c.049-18.363 0-36.718-.186-54.61" transform="translate(-640.043 -63.462)" style="fill:url(#6bynkb8euf)"/>
        </g>
    </g>
    <g data-name="그룹 3013">
        <g data-name="그룹 2839">
            <path data-name="패스 178" d="M1310.152 981.786c-16.979-8.756-33.452-22.386-40.652-40.886-3.092-7.959-4.5-16.388-5.569-24.818-1.122-8.942-1.64-17.892-1.868-26.834-.381-13.16-.1-26.321-.051-39.482.14-32.735.188-99.05.23-149.913a266.663 266.663 0 0 0-26.618 1.926c-8.275 1.123-16.557 2.528-24.369 5.666-18.156 7.35-31.531 24.119-40.139 41.4a41.27 41.27 0 0 0-2.3 4.163v136.425c0 52.5 41.688 95.165 93.245 95.255 18 .048 36.021 0 53.561-.187-1.494 0-4.166-2.016-5.472-2.716" transform="translate(-1110.328 -178.923)" style="fill:url(#369jc2qore)"/>
            <path data-name="패스 179" d="M1446.483 754.554c-1.079-8.429-2.484-16.859-5.571-24.818-7.2-18.452-23.67-32.132-40.651-40.887-1.354-.7-3.979-2.667-5.472-2.667 1.779-.049 3.509-.049 5.287-.049h-137.824c-51.557 0-93.424 42.522-93.513 95.019 0 18.411 0 36.718.187 54.61a3.944 3.944 0 0 1 .373-1.454 41.594 41.594 0 0 1 2.29-4.163c8.608-17.282 21.99-34.051 40.141-41.4 7.81-3.138 16.092-4.544 24.375-5.665a266.325 266.325 0 0 1 26.619-1.927c12.821-.374 25.636-.089 38.457-.041 37.94.139 102.032.187 147.173.229-.229-8.942-.789-17.885-1.868-26.785" transform="translate(-1110.809 -260.22)" style="fill:url(#6bynkb8euf)"/>
            <path data-name="패스 180" d="M1269.708 686.16c-21.1-.091-42.34-.091-63.015.145-1.778 0-3.514 0-5.286.041 1.494 0 4.117 1.967 5.472 2.674 16.98 8.755 33.448 22.428 40.65 40.88 3.088 7.966 4.492 16.388 5.572 24.818 1.072 8.908 1.633 17.85 1.868 26.8.373 13.16.1 26.362.047 39.523-.139 32.68-.185 98.773-.236 149.531a243.9 243.9 0 0 0 26.294-1.877c8.282-1.073 16.558-2.521 24.377-5.659 18.148-7.307 31.531-24.117 40.137-41.4.65-1.26 2.38-3.706 2.615-5.291v-150c0-44.206-35.088-80.037-78.5-80.182" transform="translate(-917.428 -260.395)" style="fill:url(#cpfdwsp37g)"/>
            <path data-name="패스 181" d="M1461.4 719.3a.76.76 0 0 1-.048.326c-.236 1.593-1.966 4.031-2.617 5.292-8.606 17.281-21.988 34.1-40.138 41.4-7.819 3.137-16.095 4.593-24.376 5.666a245.694 245.694 0 0 1-26.293 1.877c-1.868.09-185.63.139-185.63.139.237 8.949.748 17.891 1.869 26.834 1.079 8.429 2.478 16.859 5.569 24.825 7.2 18.494 23.672 32.126 40.651 40.88 1.308.707 3.978 2.716 5.473 2.716h132.019c32.326 0 60.772-16.714 77.565-42.1a95.917 95.917 0 0 0 16.142-53.245c.049-18.363 0-36.718-.186-54.61" transform="translate(-1030.821 -63.462)" style="fill:url(#6bynkb8euf)"/>
        </g>
    </g>
</svg>
