<svg xmlns="http://www.w3.org/2000/svg" width="180" height="180" viewBox="0 0 180 180">
    <defs>
        <linearGradient id="r0p7b6hn2a" x1=".708" y1="-.018" x2=".723" y2=".789" gradientUnits="objectBoundingBox">
            <stop offset="0" stop-color="#3bcabc"/>
            <stop offset="1" stop-color="#3bcabc" stop-opacity=".349"/>
        </linearGradient>
        <linearGradient id="rjr5lhucob" x1=".186" y1=".656" x2=".937" y2=".065" gradientUnits="objectBoundingBox">
            <stop offset="0" stop-color="#702bf7"/>
            <stop offset="1" stop-color="#702bf7" stop-opacity=".349"/>
        </linearGradient>
        <linearGradient id="1g5x22omhc" x1=".157" y1=".713" x2=".745" y2=".227" gradientUnits="objectBoundingBox">
            <stop offset="0" stop-color="#702bf7"/>
            <stop offset="1" stop-color="#702bf7" stop-opacity=".549"/>
        </linearGradient>
        <linearGradient id="u7l3vkxm6e" x1=".5" x2=".5" y2="1" gradientUnits="objectBoundingBox">
            <stop offset="0" stop-color="#fff"/>
            <stop offset="1" stop-color="#fff" stop-opacity=".529"/>
        </linearGradient>
        <filter id="a4536q81qd" x="60.984" y="68.34" width="38.827" height="61.603" filterUnits="userSpaceOnUse">
            <feOffset dx="4" dy="3"/>
            <feGaussianBlur stdDeviation="4" result="blur"/>
            <feFlood flood-color="#503c94" flood-opacity=".4"/>
            <feComposite operator="in" in2="blur"/>
            <feComposite in="SourceGraphic"/>
        </filter>
        <filter id="w4khojgcaf" x="65.621" y="114.173" width="30.203" height="30.203" filterUnits="userSpaceOnUse">
            <feOffset dx="4" dy="3"/>
            <feGaussianBlur stdDeviation="3" result="blur-2"/>
            <feFlood flood-color="#503c94" flood-opacity=".4"/>
            <feComposite operator="in" in2="blur-2"/>
            <feComposite in="SourceGraphic"/>
        </filter>
    </defs>
    <g data-name="그룹 2699">
        <path data-name="빼기 18" d="M108.1 99.338a46.04 46.04 0 0 0-4.709-56.98 41.99 41.99 0 0 0-14.028-9.766 40.776 40.776 0 0 0-30.4-.61 41.631 41.631 0 0 0-13.029 7.933c-.869.77-1.72 1.592-2.531 2.442a41.135 41.135 0 0 0-29.972-13.024h-.021A40.718 40.718 0 0 0 0 31.6a43.463 43.463 0 0 1 9.429-17.424 42.313 42.313 0 0 1 14.44-10.63A40.607 40.607 0 0 1 40.5 0h.021a40.518 40.518 0 0 1 15.95 3.257A42.045 42.045 0 0 1 70.5 13.023a43.171 43.171 0 0 1 2.53-2.442 41.639 41.639 0 0 1 13.03-7.933 40.773 40.773 0 0 1 30.4.61 42 42 0 0 1 14.029 9.766 45.988 45.988 0 0 1 2.326 60.2 38.919 38.919 0 0 1-2.326 2.668l-.092.093c-.036.037-.071.073-.108.108z" transform="translate(32.952 8.36)" style="fill:url(#r0p7b6hn2a);stroke:transparent;stroke-miterlimit:10"/>
        <g data-name="그룹 2677">
            <path data-name="빼기 17" d="m59.751 76.125.229-.243L0 13.018c.8-.836 1.651-1.658 2.533-2.44a41.586 41.586 0 0 1 13.025-7.932 40.738 40.738 0 0 1 30.4.609 42.009 42.009 0 0 1 14.029 9.764 45.319 45.319 0 0 1 12.39 29.738 45.614 45.614 0 0 1-10.064 30.459 38.402 38.402 0 0 1-2.562 2.909z" transform="translate(76.354 37.629)" style="fill:url(#rjr5lhucob);stroke:transparent;stroke-miterlimit:10"/>
            <path data-name="패스 2728" d="M130.776 141.788c-15.676 17.655-14.466 45.417 1.8 62.458l52.853 55.387a8.8 8.8 0 0 0 12.833 0l53.563-56.133-59.984-62.86a41.094 41.094 0 0 0-61.065 1.153" transform="translate(-115.49 -89.988)" style="fill:url(#1g5x22omhc)"/>
        </g>
        <g data-name="그룹 2702">
            <g style="filter:url(#a4536q81qd)" transform="translate(.004 -.001)">
                <path data-name="패스 2741" d="M7.414 0c4.094 0 7.414 2.893 7.414 6.462l-1.52 24.673c0 3.569-2.159 6.468-5.894 6.468s-6.066-2.9-6.066-6.468L0 6.462C0 2.893 3.319 0 7.414 0z" transform="translate(68.98 77.34)" style="fill:url(#u7l3vkxm6e)"/>
            </g>
            <g style="filter:url(#w4khojgcaf)" transform="translate(.004 -.001)">
                <circle data-name="타원 541" cx="6.102" cy="6.102" r="6.102" transform="translate(70.62 120.17)" style="fill:url(#u7l3vkxm6e)"/>
            </g>
        </g>
    </g>
</svg>
