<svg xmlns="http://www.w3.org/2000/svg" width="346" height="346" viewBox="0 0 346 346">
    <defs>
        <linearGradient id="acxq75evta" x1=".5" y1=".956" x2=".427" y2=".144" gradientUnits="objectBoundingBox">
            <stop offset="0" stop-color="#3bcabc"/>
            <stop offset="1" stop-color="#3bcabc" stop-opacity=".502"/>
        </linearGradient>
        <linearGradient id="ac0c5brx8b" x1=".791" y1=".218" x2=".41" y2="1" gradientUnits="objectBoundingBox">
            <stop offset="0" stop-color="#702bf7"/>
            <stop offset="1" stop-color="#702bf7" stop-opacity=".639"/>
        </linearGradient>
    </defs>
    <path data-name="패스 7" d="M1631.4 792.333h-.111c-2.176.005-10.147.508-11.931.727a99.28 99.28 0 0 0-48.8 19.094c3.973 2.927 18.911 17.013 21.017 19.247 17.306 18.3 9.7 45.392-2.177 55.377.829-.7 3.459-2.906 5.3-4.534 9.013-8 18.529-16.56 31.7-18.154l.071-.012c1.14-.131 4.424-.322 4.917-.322a40.158 40.158 0 0 1 40.088 40.133c0 1.344-.071 2.676-.2 4-.049.5-.148.994-.219 1.491-.109.808-.2 1.627-.36 2.425-.12.59-.294 1.163-.436 1.747-.176.689-.317 1.388-.525 2.065-.191.622-.44 1.228-.66 1.84s-.414 1.24-.667 1.841c-.261.628-.582 1.234-.876 1.851-.274.562-.514 1.136-.809 1.682-.333.612-.715 1.2-1.08 1.791-.316.525-.612 1.065-.954 1.579-.393.579-.84 1.131-1.26 1.687-.371.5-.721 1.011-1.119 1.486-.448.541-.944 1.043-1.418 1.562-.441.481-.856.972-1.326 1.437l-88.525 86.868-20.431 20.044c-25.764 26.026-51.733 7.139-60.456.6l4.146 3.708 30.547 30.23c11.169 11.049 27.6 22.432 45.776 22.432s30.06-7.3 44.082-20.5c17.584-16.565 94.663-92.216 94.827-92.379a110.76 110.76 0 0 0 33.291-79.479c0-61.5-49.98-111.545-111.412-111.556" transform="translate(-1398 -769.648)" style="fill:url(#acxq75evta)"/>
    <path data-name="패스 8" d="M1665.8 831.4c-2.106-2.228-17.043-16.32-21.017-19.242l-.042-.033c-17.311-12.736-36.667-19.793-59.834-19.793-61.442 0-111.427 50.046-111.427 111.556a110.759 110.759 0 0 0 33.286 79.479c.159.164 57.608 56.513 57.608 56.513l1.457 1.049c8.724 6.548 33.237 24.38 59-1.645l20.426-20.044-88.657-86.983a40.161 40.161 0 0 1 20.791-67.846l.291-.054c15-2.775 25.385 1.7 32.674 6.811 3.415 2.392 35.463 30.618 35.463 30.618s17.355-14.626 17.807-15c11.873-9.984 19.483-37.08 2.177-55.382" transform="translate(-1472.232 -769.648)" style="opacity:.9;fill:url(#ac0c5brx8b)"/>
</svg>
