<svg xmlns="http://www.w3.org/2000/svg" width="346" height="346" viewBox="0 0 346 346">
    <defs>
        <linearGradient id="6e1kp5ze2a" x1=".5" y1=".916" x2=".52" y2=".1" gradientUnits="objectBoundingBox">
            <stop offset="0" stop-color="#7ccfff"/>
            <stop offset="1" stop-color="#78ddff"/>
        </linearGradient>
        <linearGradient id="gg9ao2fo6b" x1=".783" y1=".098" x2=".467" y2=".937" gradientUnits="objectBoundingBox">
            <stop offset="0" stop-color="#c8f1ff"/>
            <stop offset="1" stop-color="#a7eaff"/>
        </linearGradient>
    </defs>
    <g data-name="그룹 3017" style="opacity:.3">
        <path data-name="패스 7" d="M1631.182 792.333h-.111c-2.172.005-10.132.508-11.913.726a99.1 99.1 0 0 0-48.728 19.075c3.967 2.925 18.882 17 20.984 19.228 17.28 18.284 9.681 45.348-2.173 55.322.827-.7 3.454-2.9 5.289-4.529 9-7.988 18.5-16.544 31.65-18.136l.071-.012c1.138-.13 4.417-.322 4.909-.322a40.107 40.107 0 0 1 40.027 40.094c0 1.343-.071 2.674-.2 3.994-.049.5-.148.993-.219 1.489-.109.807-.2 1.626-.359 2.422-.119.59-.294 1.162-.435 1.746-.175.688-.316 1.386-.524 2.063-.191.621-.439 1.227-.659 1.838s-.413 1.238-.666 1.839c-.26.627-.581 1.233-.874 1.85-.274.561-.513 1.135-.808 1.681-.333.611-.714 1.195-1.079 1.789-.316.524-.611 1.064-.953 1.577-.393.578-.839 1.13-1.258 1.686-.371.5-.72 1.01-1.118 1.484-.447.541-.942 1.042-1.416 1.561-.44.48-.855.971-1.324 1.435l-88.39 86.782-20.4 20.024c-25.724 26-51.654 7.132-60.364.6l4.139 3.7 30.5 30.2c11.152 11.038 27.559 22.41 45.706 22.41s30.014-7.3 44.014-20.484c17.557-16.549 94.519-92.125 94.682-92.288a110.681 110.681 0 0 0 33.24-79.4c0-61.444-49.9-111.435-111.241-111.446" transform="translate(-1398.141 -771.142)" style="fill:url(#6e1kp5ze2a)"/>
        <path data-name="패스 8" d="M1665.8 831.4c-2.106-2.228-17.043-16.32-21.017-19.242l-.042-.033c-17.311-12.736-36.667-19.793-59.834-19.793-61.442 0-111.427 50.046-111.427 111.556a110.759 110.759 0 0 0 33.286 79.479c.159.164 57.608 56.513 57.608 56.513l1.457 1.049c8.724 6.548 33.237 24.38 59-1.645l20.426-20.044-88.657-86.983a40.161 40.161 0 0 1 20.791-67.846l.291-.054c15-2.775 25.385 1.7 32.674 6.811 3.415 2.392 35.463 30.618 35.463 30.618s17.355-14.626 17.807-15c11.873-9.984 19.483-37.08 2.177-55.382" transform="translate(-1472.481 -771.598)" style="opacity:.9;fill:url(#gg9ao2fo6b)"/>
    </g>
</svg>
