<svg xmlns="http://www.w3.org/2000/svg" xmlns:xlink="http://www.w3.org/1999/xlink" width="334" height="334" viewBox="0 0 334 334">
    <defs>
        <linearGradient id="7e683zho5a" x1="-.132" y1=".917" x2=".577" y2=".321" gradientUnits="objectBoundingBox">
            <stop offset="0" stop-color="#ff9fa8"/>
            <stop offset="1" stop-color="#ffbec4"/>
        </linearGradient>
        <linearGradient id="o0vrzlacsb" x1=".728" x2="-.159" gradientUnits="objectBoundingBox">
            <stop offset="0" stop-color="#f26d84"/>
            <stop offset="1" stop-color="#ff9fa8"/>
        </linearGradient>
        <linearGradient id="pef9o8i17c" x1=".5" y1="1.308" x2=".5" y2=".446" xlink:href="#7e683zho5a"/>
        <linearGradient id="rvcj6w3lkd" x1=".649" x2="-.157" xlink:href="#o0vrzlacsb"/>
    </defs>
    <g data-name="그룹 2839" style="opacity:.3">
        <path data-name="패스 178" d="M1291.755 945.087c-14.769-7.616-29.094-19.473-35.36-35.565-2.69-6.923-3.911-14.255-4.844-21.588-.976-7.778-1.426-15.562-1.625-23.341-.331-11.447-.085-22.895-.044-34.342.122-28.474.164-86.157.2-130.4a231.931 231.931 0 0 0-23.153 1.675c-7.2.976-14.4 2.2-21.2 4.928-15.793 6.393-27.426 20.979-34.914 36.012a35.964 35.964 0 0 0-2 3.621v118.668c0 45.663 36.262 82.778 81.108 82.856 15.66.042 31.332 0 46.589-.162-1.3 0-3.624-1.753-4.76-2.362" transform="translate(-1163.335 -614.78)" style="fill:url(#7e683zho5a);opacity:.85"/>
        <path data-name="패스 179" d="M1410.33 745.648c-.939-7.332-2.161-14.664-4.846-21.588-6.265-16.05-20.589-27.95-35.359-35.565-1.177-.609-3.461-2.32-4.76-2.32 1.547-.042 3.052-.042 4.6-.042h-119.886c-44.846 0-81.263 36.987-81.341 82.651 0 16.015 0 31.939.162 47.5a3.43 3.43 0 0 1 .324-1.264 36.143 36.143 0 0 1 1.992-3.621c7.487-15.033 19.127-29.619 34.916-36.012 6.793-2.729 14-3.952 21.2-4.928a231.611 231.611 0 0 1 23.154-1.676c11.152-.325 22.3-.078 33.451-.036 33 .121 88.751.163 128.016.2-.2-7.778-.687-15.557-1.625-23.3" transform="translate(-1163.744 -683.71)" style="fill:url(#o0vrzlacsb)"/>
        <path data-name="패스 180" d="M1260.818 686.153c-18.352-.079-36.828-.079-54.812.126-1.547 0-3.057 0-4.6.036 1.3 0 3.581 1.711 4.76 2.326 14.77 7.615 29.095 19.509 35.358 35.559 2.686 6.929 3.907 14.255 4.847 21.587.932 7.748 1.42 15.527 1.625 23.311.324 11.447.084 22.931.041 34.378-.121 28.426-.161 85.916-.2 130.067a212.2 212.2 0 0 0 22.871-1.633c7.2-.934 14.4-2.193 21.2-4.923 15.786-6.356 27.427-20.978 34.913-36.011.565-1.1 2.07-3.223 2.275-4.6V755.9c0-38.452-30.521-69.619-68.279-69.745" transform="translate(-999.787 -683.858)" style="fill:url(#pef9o8i17c);opacity:.85"/>
        <path data-name="패스 181" d="M1425.065 719.3a.659.659 0 0 1-.042.283c-.205 1.386-1.71 3.507-2.276 4.6-7.486 15.032-19.126 29.661-34.913 36.011-6.8 2.729-14 3.995-21.2 4.928a213.676 213.676 0 0 1-22.87 1.633c-1.625.078-161.467.121-161.467.121.206 7.784.651 15.562 1.625 23.341.939 7.332 2.156 14.665 4.844 21.593 6.266 16.087 20.591 27.944 35.36 35.559 1.137.615 3.46 2.362 4.76 2.362h114.834a80.819 80.819 0 0 0 67.468-36.62 83.431 83.431 0 0 0 14.041-46.314c.043-15.972 0-31.938-.162-47.5" transform="translate(-1095.932 -516.88)" style="fill:url(#rvcj6w3lkd)"/>
    </g>
</svg>
