<svg xmlns="http://www.w3.org/2000/svg" width="334" height="333.004" viewBox="0 0 334 333.004">
    <defs>
        <linearGradient id="nbqawrjk2a" x1=".115" y1="1.036" x2=".5" gradientUnits="objectBoundingBox">
            <stop offset="0" stop-color="#3bcabc"/>
            <stop offset=".223" stop-color="#3dcbbd"/>
            <stop offset="1" stop-color="#9ce4dd"/>
        </linearGradient>
        <linearGradient id="a1un9ad3kb" x1=".794" y1=".152" x2="-.044" y2=".321" gradientUnits="objectBoundingBox">
            <stop offset="0" stop-color="#702bf7"/>
            <stop offset="1" stop-color="#702bf7" stop-opacity=".62"/>
        </linearGradient>
        <linearGradient id="h0obabejnc" x1=".285" y1=".92" x2=".629" y2=".129" gradientUnits="objectBoundingBox">
            <stop offset="0" stop-color="#99e3dc"/>
            <stop offset="1" stop-color="#3ecfc1"/>
        </linearGradient>
        <linearGradient id="8bngm3674d" x1=".805" y1=".303" x2="-.091" gradientUnits="objectBoundingBox">
            <stop offset="0" stop-color="#702bf7"/>
            <stop offset="1" stop-color="#702bf7" stop-opacity=".639"/>
        </linearGradient>
    </defs>
    <g data-name="그룹 2839">
        <path data-name="패스 178" d="M1291.376 944.347c-14.724-7.593-29-19.415-35.251-35.458-2.681-6.9-3.9-14.212-4.829-21.523-.973-7.755-1.422-15.516-1.62-23.27-.33-11.413-.085-22.826-.044-34.239.122-28.388.163-85.9.2-130.006a231.208 231.208 0 0 0-23.082 1.67c-7.176.974-14.357 2.193-21.132 4.914-15.744 6.374-27.342 20.916-34.807 35.9a35.851 35.851 0 0 0-1.993 3.61v118.31c0 45.526 36.15 82.528 80.858 82.606 15.611.041 31.235 0 46.445-.162-1.3 0-3.613-1.748-4.745-2.355" transform="translate(-1163.293 -614.152)" style="fill:url(#nbqawrjk2a)"/>
        <path data-name="패스 179" d="M1409.585 745.468c-.936-7.31-2.154-14.62-4.831-21.523-6.245-16-20.526-27.865-35.25-35.458-1.174-.607-3.45-2.313-4.745-2.313 1.543-.042 3.043-.042 4.584-.042h-119.514c-44.708 0-81.012 36.876-81.09 82.4 0 15.966 0 31.842.162 47.358a3.419 3.419 0 0 1 .323-1.261 36.03 36.03 0 0 1 1.986-3.61c7.464-14.987 19.068-29.53 34.808-35.9 6.772-2.721 13.954-3.94 21.136-4.913a230.893 230.893 0 0 1 23.083-1.671c11.118-.324 22.23-.077 33.348-.036 32.9.12 88.477.162 127.621.2-.2-7.754-.685-15.51-1.62-23.228" transform="translate(-1163.7 -682.832)" style="fill:url(#a1un9ad3kb)"/>
        <path data-name="패스 180" d="M1260.635 686.153c-18.3-.079-36.715-.079-54.643.126-1.542 0-3.047 0-4.583.036 1.3 0 3.57 1.706 4.745 2.319 14.724 7.592 29 19.45 35.249 35.452 2.678 6.908 3.9 14.212 4.832 21.522.929 7.725 1.416 15.48 1.62 23.241.323 11.412.084 22.861.041 34.275-.12 28.34-.16 85.657-.2 129.675a211.52 211.52 0 0 0 22.8-1.628c7.181-.931 14.358-2.186 21.138-4.908 15.737-6.336 27.342-20.915 34.805-35.9.563-1.093 2.064-3.214 2.268-4.589V755.687c0-38.336-30.427-69.409-68.069-69.535" transform="translate(-1000.349 -682.98)" style="fill:url(#h0obabejnc)"/>
        <path data-name="패스 181" d="M1424.317 719.3a.657.657 0 0 1-.041.282c-.2 1.381-1.7 3.5-2.269 4.589-7.463 14.986-19.067 29.572-34.806 35.9-6.78 2.721-13.956 3.983-21.138 4.914a213 213 0 0 1-22.8 1.628c-1.62.078-160.969.12-160.969.12.206 7.761.649 15.515 1.62 23.271.936 7.31 2.149 14.62 4.829 21.528 6.246 16.038 20.527 27.86 35.251 35.451 1.134.613 3.449 2.355 4.745 2.355h114.48a80.568 80.568 0 0 0 67.26-36.51 83.183 83.183 0 0 0 14-46.174c.043-15.924 0-31.842-.161-47.358" transform="translate(-1096.139 -516.606)" style="fill:url(#8bngm3674d)"/>
    </g>
</svg>
