<svg xmlns="http://www.w3.org/2000/svg" width="132" height="182.104" viewBox="0 0 132 182.104">
    <path data-name="패스 2505" d="M92.081 410.939a16.521 16.521 0 1 1 4.838 11.734 16.686 16.686 0 0 1-4.838-11.734" transform="translate(5.478 -394.367)" style="fill:#fff"/>
    <path data-name="패스 2506" d="M89.6 410.939a16.457 16.457 0 1 1 4.8 11.734 16.654 16.654 0 0 1-4.8-11.734" transform="translate(-86.402 -394.367)" style="fill:#fff"/>
    <path data-name="패스 2507" d="M96.872 396.781c-4.419.989-7.353 6.133-7.353 14.02v78.024h35.7V425.2c-10.362-12.533-18.287-21.944-19.049-22.821-2.591-3.047-5.486-6.437-9.3-5.6" transform="translate(-89.52 -309.601)" style="fill:#fff"/>
    <path data-name="패스 2508" d="M120.393 487.69c4.419-.99 7.353-6.135 7.353-14.021v-78.024h-35.7v63.624c10.363 12.534 18.287 21.944 19.049 22.821 2.591 3.047 5.486 6.437 9.3 5.6" transform="translate(4.254 -346.953)" style="fill:#fff"/>
    <path data-name="패스 2509" d="M215.921 496.971c-3.2 1.449-7.274 1.029-10.626-2.359-.837-.8-70.646-84.081-76.244-90.934a22.98 22.98 0 0 0-7.693-5.979 22.476 22.476 0 0 0-9.521-2.133 22.364 22.364 0 0 0-22.237 22.24c0 3.008 0 5.711-.038 8.11 0 3.083-.038 11.843-.038 11.843a10.2 10.2 0 0 1 5.522-6.816c3.2-1.562 7.388-1.333 11.12 2.4.8.8 67.676 81.832 73.693 88.878a29.421 29.421 0 0 0 9.75 7.425 24.513 24.513 0 0 0 11.92 2.208 22.818 22.818 0 0 0 14.167-6.017 18.577 18.577 0 0 0 5.827-13.785v-23.229a8.867 8.867 0 0 1-5.6 8.148" transform="translate(-89.52 -349.811)" style="fill:#fff"/>
</svg>
