<svg xmlns="http://www.w3.org/2000/svg" xmlns:xlink="http://www.w3.org/1999/xlink" width="180" height="180" viewBox="0 0 180 180">
    <defs>
        <linearGradient id="vra58aq8ga" x1="-.132" y1=".917" x2=".577" y2=".321" gradientUnits="objectBoundingBox">
            <stop offset="0" stop-color="#ff9fa8"/>
            <stop offset="1" stop-color="#ffbec4"/>
        </linearGradient>
        <linearGradient id="f7fssxqvzb" x1=".728" x2="-.159" gradientUnits="objectBoundingBox">
            <stop offset="0" stop-color="#f26d84"/>
            <stop offset="1" stop-color="#ff9fa8"/>
        </linearGradient>
        <linearGradient id="vd4qy5wsoc" x1=".5" y1="1.308" x2=".5" y2=".446" xlink:href="#vra58aq8ga"/>
        <linearGradient id="okynljiscd" x1=".649" x2="-.157" xlink:href="#f7fssxqvzb"/>
    </defs>
    <g data-name="그룹 2839">
        <path data-name="패스 178" d="M1234.936 831.6c-7.943-4.092-15.647-10.462-19.017-19.107a48.742 48.742 0 0 1-2.605-11.6c-.525-4.179-.767-8.361-.874-12.54-.178-6.15-.046-12.3-.024-18.45.065-15.3.088-46.287.107-70.056-4.156.11-8.292.372-12.452.9a47.431 47.431 0 0 0-11.4 2.648c-8.494 3.435-14.75 11.271-18.777 19.347a19.264 19.264 0 0 0-1.075 1.945v63.753c0 24.532 19.5 44.472 43.621 44.514 8.422.022 16.851 0 25.056-.087-.7 0-1.949-.942-2.56-1.269" transform="translate(-1165.767 -653.928)" style="fill:url(#vra58aq8ga);opacity:.85"/>
        <path data-name="패스 179" d="M1298.67 718.107a49.016 49.016 0 0 0-2.606-11.6c-3.369-8.623-11.073-15.016-19.017-19.107-.633-.327-1.861-1.246-2.56-1.246.832-.023 1.642-.023 2.473-.023h-64.475c-24.119 0-43.7 19.871-43.746 44.4 0 8.6 0 17.159.087 25.52a1.841 1.841 0 0 1 .174-.679 19.433 19.433 0 0 1 1.071-1.945c4.027-8.076 10.287-15.912 18.778-19.347a47.381 47.381 0 0 1 11.4-2.648 124.716 124.716 0 0 1 12.453-.9c6-.175 11.993-.042 17.99-.019 17.748.065 47.731.088 68.849.107-.107-4.179-.369-8.358-.874-12.517" transform="translate(-1165.95 -684.611)" style="fill:url(#f7fssxqvzb)"/>
        <path data-name="패스 180" d="M1233.36 686.13c-9.87-.042-19.807-.042-29.479.068-.832 0-1.644 0-2.473.019.7 0 1.926.919 2.56 1.25 7.943 4.091 15.647 10.481 19.016 19.1a49.046 49.046 0 0 1 2.607 11.6c.5 4.163.764 8.342.874 12.524.174 6.15.045 12.319.022 18.47-.065 15.272-.087 46.158-.11 69.877a114.232 114.232 0 0 0 12.3-.877 46.372 46.372 0 0 0 11.4-2.645c8.49-3.415 14.75-11.27 18.776-19.347a10.562 10.562 0 0 0 1.224-2.473V723.6c0-20.658-16.415-37.4-36.722-37.47" transform="translate(-1092.871 -684.678)" style="fill:url(#vd4qy5wsoc);opacity:.85"/>
        <path data-name="패스 181" d="M1312.86 719.3a.355.355 0 0 1-.022.152 10.494 10.494 0 0 1-1.224 2.473c-4.026 8.076-10.286 15.935-18.777 19.347a46.4 46.4 0 0 1-11.4 2.648 115.064 115.064 0 0 1-12.3.877c-.874.042-86.839.065-86.839.065.111 4.182.35 8.361.874 12.54a48.968 48.968 0 0 0 2.605 11.6c3.37 8.642 11.074 15.013 19.017 19.1.612.331 1.861 1.269 2.56 1.269h61.76A43.477 43.477 0 0 0 1305.4 769.7a44.79 44.79 0 0 0 7.551-24.882c.023-8.581 0-17.159-.087-25.52" transform="translate(-1135.745 -610.33)" style="fill:url(#okynljiscd)"/>
    </g>
</svg>
