<svg xmlns="http://www.w3.org/2000/svg" width="880.001" height="880" viewBox="0 0 880.001 880">
    <defs>
        <linearGradient id="u5h0ain4ma" x1=".88" y1=".545" x2=".5" y2="1" gradientUnits="objectBoundingBox">
            <stop offset="0" stop-color="#96e2db"/>
            <stop offset="1" stop-color="#81ded5"/>
        </linearGradient>
        <linearGradient id="n0oh51jg9b" x1=".215" y1=".957" x2=".598" y2=".471" gradientUnits="objectBoundingBox">
            <stop offset="0" stop-color="#b9ece7"/>
            <stop offset="1" stop-color="#cdf1ee"/>
        </linearGradient>
        <linearGradient id="2jgnz3oyuc" x1="1.319" y1=".387" x2=".401" y2="1" gradientUnits="objectBoundingBox">
            <stop offset="0" stop-color="#d7c4ff"/>
            <stop offset="1" stop-color="#c7acfb"/>
        </linearGradient>
        <linearGradient id="2u6ohvyu2d" x1=".5" x2=".5" y2="1" gradientUnits="objectBoundingBox">
            <stop offset="0" stop-color="#e1d2ff"/>
            <stop offset="1" stop-color="#f2ecff"/>
        </linearGradient>
    </defs>
    <g data-name="그룹 2964">
        <path data-name="패스 174" d="M1446.219 485.727a15 15 0 0 0-.978-1.259 13.864 13.864 0 0 0-3.075-2.324c-6.483-3.986-21.3-10.178-34.778-10.178a59.519 59.519 0 0 0-38.3 13.724c-10.365 8.793-25.022 21.332-25.022 21.332A77.81 77.81 0 0 1 1365 518.258c.527.4 1.053.775 1.578 1.178a64.005 64.005 0 0 1 4.86 3.867 99.513 99.513 0 0 1 8.1 7.615h.037v.044a97.532 97.532 0 0 1 26.85 63.14h-.049a97.658 97.658 0 0 1-132.71 87.085s-14.656 12.54-25.022 21.332a59.527 59.527 0 0 1-38.3 13.723c-13.478 0-28.3-6.191-34.773-10.177a14.009 14.009 0 0 1-3.082-2.324c2.186 2.645 6.4 7.331 7.9 8.874a176.706 176.706 0 0 0 250.888 6.109 177.947 177.947 0 0 0 55.011-124.624 177.051 177.051 0 0 0-40.07-108.373" transform="translate(-1128.274 -153.598)" style="fill:url(#u5h0ain4ma)"/>
        <path data-name="패스 175" d="M1185.3 503.4a97.048 97.048 0 0 0 20.931 11.236A77.812 77.812 0 0 1 1185.3 503.4" transform="translate(-1060.839 12.949)" style="fill:#8a55f3"/>
        <path data-name="패스 176" d="M1182.974 501.422v-.038l.037.038z" transform="translate(-1073.088 2.269)" style="fill:#8a55f3"/>
        <path data-name="패스 177" d="M1471.844 519.127a176.707 176.707 0 0 0-250.889-6.109 177.968 177.968 0 0 0-55.022 124.622 177.038 177.038 0 0 0 40.084 108.373 14.989 14.989 0 0 0 .97 1.266 14.329 14.329 0 0 0 3.076 2.318c6.483 3.993 21.3 10.177 34.778 10.177a59.555 59.555 0 0 0 38.3-13.718c10.365-8.792 25.022-21.332 25.022-21.332a77.979 77.979 0 0 1-20.932-11.242c-.526-.4-1.052-.768-1.578-1.178a60.457 60.457 0 0 1-4.861-3.867 99.4 99.4 0 0 1-8.1-7.614h-.037v-.038a97.513 97.513 0 0 1-26.844-63.146h.038a97.662 97.662 0 0 1 132.715-87.084s14.657-12.54 25.021-21.332a59.563 59.563 0 0 1 38.3-13.717c13.477 0 28.3 6.185 34.772 10.177a13.794 13.794 0 0 1 3.075 2.318c-2.186-2.645-6.395-7.325-7.892-8.874" transform="translate(-1162.77 -197.137)" style="fill:url(#n0oh51jg9b)"/>
    </g>
    <g data-name="그룹 2970">
        <path data-name="패스 174" d="M1446.219 485.727a15 15 0 0 0-.978-1.259 13.864 13.864 0 0 0-3.075-2.324c-6.483-3.986-21.3-10.178-34.778-10.178a59.519 59.519 0 0 0-38.3 13.724c-10.365 8.793-25.022 21.332-25.022 21.332A77.81 77.81 0 0 1 1365 518.258c.527.4 1.053.775 1.578 1.178a64.005 64.005 0 0 1 4.86 3.867 99.513 99.513 0 0 1 8.1 7.615h.037v.044a97.532 97.532 0 0 1 26.85 63.14h-.049a97.658 97.658 0 0 1-132.71 87.085s-14.656 12.54-25.022 21.332a59.527 59.527 0 0 1-38.3 13.723c-13.478 0-28.3-6.191-34.773-10.177a14.009 14.009 0 0 1-3.082-2.324c2.186 2.645 6.4 7.331 7.9 8.874a176.706 176.706 0 0 0 250.888 6.109 177.947 177.947 0 0 0 55.011-124.624 177.051 177.051 0 0 0-40.07-108.373" transform="translate(-610.274 -153.598)" style="fill:url(#u5h0ain4ma)"/>
        <path data-name="패스 175" d="M1185.3 503.4a97.048 97.048 0 0 0 20.931 11.236A77.812 77.812 0 0 1 1185.3 503.4" transform="translate(-542.839 12.949)" style="fill:#8a55f3"/>
        <path data-name="패스 176" d="M1182.974 501.422v-.038l.037.038z" transform="translate(-555.088 2.269)" style="fill:#8a55f3"/>
        <path data-name="패스 177" d="M1471.844 519.127a176.707 176.707 0 0 0-250.889-6.109 177.968 177.968 0 0 0-55.022 124.622 177.038 177.038 0 0 0 40.084 108.373 14.989 14.989 0 0 0 .97 1.266 14.329 14.329 0 0 0 3.076 2.318c6.483 3.993 21.3 10.177 34.778 10.177a59.555 59.555 0 0 0 38.3-13.718c10.365-8.792 25.022-21.332 25.022-21.332a77.979 77.979 0 0 1-20.932-11.242c-.526-.4-1.052-.768-1.578-1.178a60.457 60.457 0 0 1-4.861-3.867 99.4 99.4 0 0 1-8.1-7.614h-.037v-.038a97.513 97.513 0 0 1-26.844-63.146h.038a97.662 97.662 0 0 1 132.715-87.084s14.657-12.54 25.021-21.332a59.563 59.563 0 0 1 38.3-13.717c13.477 0 28.3 6.185 34.772 10.177a13.794 13.794 0 0 1 3.075 2.318c-2.186-2.645-6.395-7.325-7.892-8.874" transform="translate(-644.77 -197.137)" style="fill:url(#n0oh51jg9b)"/>
    </g>
    <g data-name="그룹 2967">
        <path data-name="패스 174" d="M1446.219 485.727a15 15 0 0 0-.978-1.259 13.864 13.864 0 0 0-3.075-2.324c-6.483-3.986-21.3-10.178-34.778-10.178a59.519 59.519 0 0 0-38.3 13.724c-10.365 8.793-25.022 21.332-25.022 21.332A77.81 77.81 0 0 1 1365 518.258c.527.4 1.053.775 1.578 1.178a64.005 64.005 0 0 1 4.86 3.867 99.513 99.513 0 0 1 8.1 7.615h.037v.044a97.532 97.532 0 0 1 26.85 63.14h-.049a97.658 97.658 0 0 1-132.71 87.085s-14.656 12.54-25.022 21.332a59.527 59.527 0 0 1-38.3 13.723c-13.478 0-28.3-6.191-34.773-10.177a14.009 14.009 0 0 1-3.082-2.324c2.186 2.645 6.4 7.331 7.9 8.874a176.706 176.706 0 0 0 250.888 6.109 177.947 177.947 0 0 0 55.011-124.624 177.051 177.051 0 0 0-40.07-108.373" transform="translate(-869.274 105.402)" style="fill:url(#2jgnz3oyuc)"/>
        <path data-name="패스 175" d="M1185.3 503.4a97.048 97.048 0 0 0 20.931 11.236A77.812 77.812 0 0 1 1185.3 503.4" transform="translate(-801.839 271.949)" style="fill:#8a55f3"/>
        <path data-name="패스 176" d="M1182.974 501.422v-.038l.037.038z" transform="translate(-814.088 261.269)" style="fill:#8a55f3"/>
        <path data-name="패스 177" d="M1471.844 519.127a176.707 176.707 0 0 0-250.889-6.109 177.968 177.968 0 0 0-55.022 124.622 177.038 177.038 0 0 0 40.084 108.373 14.989 14.989 0 0 0 .97 1.266 14.329 14.329 0 0 0 3.076 2.318c6.483 3.993 21.3 10.177 34.778 10.177a59.555 59.555 0 0 0 38.3-13.718c10.365-8.792 25.022-21.332 25.022-21.332a77.979 77.979 0 0 1-20.932-11.242c-.526-.4-1.052-.768-1.578-1.178a60.457 60.457 0 0 1-4.861-3.867 99.4 99.4 0 0 1-8.1-7.614h-.037v-.038a97.513 97.513 0 0 1-26.844-63.146h.038a97.662 97.662 0 0 1 132.715-87.084s14.657-12.54 25.021-21.332a59.563 59.563 0 0 1 38.3-13.717c13.477 0 28.3 6.185 34.772 10.177a13.794 13.794 0 0 1 3.075 2.318c-2.186-2.645-6.395-7.325-7.892-8.874" transform="translate(-903.77 61.863)" style="fill:url(#2u6ohvyu2d)"/>
    </g>
    <g data-name="그룹 2982">
        <path data-name="패스 174" d="M1446.219 485.727a15 15 0 0 0-.978-1.259 13.864 13.864 0 0 0-3.075-2.324c-6.483-3.986-21.3-10.178-34.778-10.178a59.519 59.519 0 0 0-38.3 13.724c-10.365 8.793-25.022 21.332-25.022 21.332A77.81 77.81 0 0 1 1365 518.258c.527.4 1.053.775 1.578 1.178a64.005 64.005 0 0 1 4.86 3.867 99.513 99.513 0 0 1 8.1 7.615h.037v.044a97.532 97.532 0 0 1 26.85 63.14h-.049a97.658 97.658 0 0 1-132.71 87.085s-14.656 12.54-25.022 21.332a59.527 59.527 0 0 1-38.3 13.723c-13.478 0-28.3-6.191-34.773-10.177a14.009 14.009 0 0 1-3.082-2.324c2.186 2.645 6.4 7.331 7.9 8.874a176.706 176.706 0 0 0 250.888 6.109 177.947 177.947 0 0 0 55.011-124.624 177.051 177.051 0 0 0-40.07-108.373" transform="translate(-869.274 -412.598)" style="fill:url(#2jgnz3oyuc)"/>
        <path data-name="패스 175" d="M1185.3 503.4a97.048 97.048 0 0 0 20.931 11.236A77.812 77.812 0 0 1 1185.3 503.4" transform="translate(-801.839 -246.051)" style="fill:#8a55f3"/>
        <path data-name="패스 176" d="M1182.974 501.422v-.038l.037.038z" transform="translate(-814.088 -256.731)" style="fill:#8a55f3"/>
        <path data-name="패스 177" d="M1471.844 519.127a176.707 176.707 0 0 0-250.889-6.109 177.968 177.968 0 0 0-55.022 124.622 177.038 177.038 0 0 0 40.084 108.373 14.989 14.989 0 0 0 .97 1.266 14.329 14.329 0 0 0 3.076 2.318c6.483 3.993 21.3 10.177 34.778 10.177a59.555 59.555 0 0 0 38.3-13.718c10.365-8.792 25.022-21.332 25.022-21.332a77.979 77.979 0 0 1-20.932-11.242c-.526-.4-1.052-.768-1.578-1.178a60.457 60.457 0 0 1-4.861-3.867 99.4 99.4 0 0 1-8.1-7.614h-.037v-.038a97.513 97.513 0 0 1-26.844-63.146h.038a97.662 97.662 0 0 1 132.715-87.084s14.657-12.54 25.021-21.332a59.563 59.563 0 0 1 38.3-13.717c13.477 0 28.3 6.185 34.772 10.177a13.794 13.794 0 0 1 3.075 2.318c-2.186-2.645-6.395-7.325-7.892-8.874" transform="translate(-903.77 -456.137)" style="fill:url(#2u6ohvyu2d)"/>
    </g>
</svg>
