<svg xmlns="http://www.w3.org/2000/svg" xmlns:xlink="http://www.w3.org/1999/xlink" width="880" height="880" viewBox="0 0 880 880">
    <defs>
        <linearGradient id="l4eve23qqc" x1=".527" y1=".869" x2=".5" y2=".157" gradientUnits="objectBoundingBox">
            <stop offset="0" stop-color="#e1d2ff"/>
            <stop offset="1" stop-color="#f2ecff"/>
        </linearGradient>
        <linearGradient id="yfpucri5jd" x1=".203" y1=".873" x2=".72" y2="-.043" gradientUnits="objectBoundingBox">
            <stop offset="0" stop-color="#c7acfb"/>
            <stop offset="1" stop-color="#d7c4ff"/>
        </linearGradient>
        <linearGradient id="pqppb2fj4a" x1=".5" y1=".916" x2=".52" y2=".1" gradientUnits="objectBoundingBox">
            <stop offset="0" stop-color="#90d5ff"/>
            <stop offset="1" stop-color="#a2e6ff"/>
        </linearGradient>
        <linearGradient id="hjb2zx7d8b" x1=".486" y1=".19" x2=".467" y2=".937" gradientUnits="objectBoundingBox">
            <stop offset="0" stop-color="#d7f4ff"/>
            <stop offset="1" stop-color="#c2f0ff"/>
        </linearGradient>
        <linearGradient id="netdbknp0e" x1=".5" y1=".955" x2=".5" y2=".101" xlink:href="#pqppb2fj4a"/>
        <linearGradient id="ww8xsndt8f" x1=".541" y1=".167" x2=".541" y2=".981" xlink:href="#hjb2zx7d8b"/>
    </defs>
    <path data-name="패스 7" d="M139.979 0h.139c2.733.007 12.749.639 14.99.913A124.737 124.737 0 0 1 216.425 24.9c-4.991 3.678-23.76 21.376-26.405 24.182-21.743 22.995-12.182 57.032 2.735 69.576-1.041-.879-4.346-3.651-6.655-5.7-11.324-10.046-23.28-20.806-39.826-22.809l-.09-.015c-1.432-.164-5.558-.4-6.177-.4a50.454 50.454 0 0 0-50.368 50.426c0 1.688.089 3.362.253 5.023.061.63.186 1.249.275 1.873.137 1.015.255 2.045.452 3.047.15.742.37 1.462.548 2.2.221.865.4 1.743.659 2.595.24.781.553 1.543.829 2.312s.52 1.557.838 2.313c.328.788.731 1.55 1.1 2.326.345.706.646 1.428 1.016 2.114.419.769.9 1.5 1.357 2.25.4.659.768 1.338 1.2 1.983.494.727 1.056 1.421 1.583 2.12.467.625.906 1.27 1.406 1.867.563.68 1.186 1.31 1.782 1.963.554.6 1.076 1.221 1.666 1.805l111.224 109.138 25.67 25.184c32.37 32.7 65 8.969 75.957.749l-5.209 4.659-38.379 37.982c-14.032 13.883-34.679 28.185-57.513 28.185s-37.768-9.176-55.385-25.762C138.876 335.272 42.032 240.224 41.827 240.018A139.159 139.159 0 0 1 0 140.16C0 62.885 62.8.013 139.979 0" transform="translate(224.001 74)" style="fill:url(#l4eve23qqc)"/>
    <path data-name="패스 8" d="M12.753 49.085c2.646-2.8 21.414-20.5 26.406-24.176l.053-.041C60.961 8.866 85.281 0 114.388 0c77.2 0 140 62.878 140 140.16a139.16 139.16 0 0 1-41.821 99.858c-.2.206-72.379 71-72.379 71l-1.83 1.318c-10.96 8.228-41.759 30.632-74.126-2.067l-25.664-25.18L149.955 175.8a50.458 50.458 0 0 0-26.122-85.24l-.365-.068c-18.842-3.486-31.895 2.14-41.052 8.557-4.291 3.005-44.556 38.469-44.556 38.469s-21.8-18.377-22.373-18.851C.571 106.123-8.991 72.08 12.753 49.085" transform="translate(401.267 74)" style="opacity:.88;fill:url(#yfpucri5jd)"/>
    <g data-name="logo">
        <path data-name="패스 7" d="M177.476 0h-.139c-2.733.007-12.749.639-14.99.913A124.737 124.737 0 0 0 101.03 24.9c4.991 3.678 23.76 21.376 26.405 24.182 21.743 22.995 12.182 57.032-2.735 69.576 1.041-.879 4.346-3.651 6.655-5.7 11.324-10.046 23.28-20.806 39.826-22.809l.09-.015c1.432-.164 5.558-.4 6.177-.4a50.454 50.454 0 0 1 50.367 50.424c0 1.688-.089 3.362-.253 5.023-.062.63-.186 1.249-.275 1.873-.137 1.015-.255 2.045-.452 3.047-.15.742-.37 1.462-.548 2.2-.221.865-.4 1.743-.659 2.595-.24.781-.553 1.543-.829 2.312s-.52 1.557-.837 2.313c-.328.788-.731 1.55-1.1 2.326-.345.706-.646 1.428-1.016 2.114-.419.769-.9 1.5-1.357 2.25-.4.659-.768 1.338-1.2 1.983-.494.727-1.056 1.421-1.583 2.12-.467.625-.906 1.27-1.406 1.867-.563.68-1.186 1.31-1.782 1.963-.554.6-1.076 1.221-1.666 1.805l-111.224 109.14-25.67 25.184c-32.37 32.7-65 8.969-75.957.749l5.209 4.659 38.379 37.982c14.033 13.883 34.679 28.185 57.513 28.185s37.768-9.176 55.385-25.762c22.093-20.813 118.936-115.861 119.142-116.067a139.159 139.159 0 0 0 41.827-99.858C317.455 62.885 254.659.013 177.476 0" transform="translate(562.2 415.001)" style="fill:url(#pqppb2fj4a)"/>
        <path data-name="패스 8" d="M241.635 49.085c-2.646-2.8-21.414-20.5-26.406-24.176l-.053-.041C193.426 8.866 169.106 0 140 0 62.8 0 0 62.878 0 140.16a139.16 139.16 0 0 0 41.821 99.858c.2.206 72.379 71 72.379 71l1.83 1.318c10.96 8.228 41.759 30.632 74.126-2.067l25.663-25.184L104.432 175.8a50.458 50.458 0 0 1 26.122-85.24l.365-.068c18.842-3.486 31.895 2.14 41.052 8.557 4.291 3.005 44.556 38.469 44.556 38.469s21.8-18.377 22.374-18.851c14.917-12.544 24.478-46.587 2.735-69.582" style="fill:url(#hjb2zx7d8b)" transform="translate(448.001 415.001)"/>
    </g>
    <g data-name="logo">
        <path data-name="패스 7" d="M177.476 0h-.139c-2.733.007-12.749.639-14.99.913A124.737 124.737 0 0 0 101.03 24.9c4.991 3.678 23.76 21.376 26.405 24.182 21.743 22.995 12.182 57.032-2.735 69.576 1.041-.879 4.346-3.651 6.655-5.7 11.324-10.046 23.28-20.806 39.826-22.809l.09-.015c1.432-.164 5.558-.4 6.177-.4a50.454 50.454 0 0 1 50.367 50.424c0 1.688-.089 3.362-.253 5.023-.062.63-.186 1.249-.275 1.873-.137 1.015-.255 2.045-.452 3.047-.15.742-.37 1.462-.548 2.2-.221.865-.4 1.743-.659 2.595-.24.781-.553 1.543-.829 2.312s-.52 1.557-.837 2.313c-.328.788-.731 1.55-1.1 2.326-.345.706-.646 1.428-1.016 2.114-.419.769-.9 1.5-1.357 2.25-.4.659-.768 1.338-1.2 1.983-.494.727-1.056 1.421-1.583 2.12-.467.625-.906 1.27-1.406 1.867-.563.68-1.186 1.31-1.782 1.963-.554.6-1.076 1.221-1.666 1.805l-111.224 109.14-25.67 25.184c-32.37 32.7-65 8.969-75.957.749l5.209 4.659 38.379 37.982c14.033 13.883 34.679 28.185 57.513 28.185s37.768-9.176 55.385-25.762c22.093-20.813 118.936-115.861 119.142-116.067a139.159 139.159 0 0 0 41.827-99.858C317.455 62.885 254.659.013 177.476 0" transform="translate(114.199 415.001)" style="fill:url(#netdbknp0e)"/>
        <path data-name="패스 8" d="M241.635 49.085c-2.646-2.8-21.414-20.5-26.406-24.176l-.053-.041C193.426 8.866 169.106 0 140 0 62.8 0 0 62.878 0 140.16a139.16 139.16 0 0 0 41.821 99.858c.2.206 72.379 71 72.379 71l1.83 1.318c10.96 8.228 41.759 30.632 74.126-2.067l25.663-25.184L104.432 175.8a50.458 50.458 0 0 1 26.122-85.24l.365-.068c18.842-3.486 31.895 2.14 41.052 8.557 4.291 3.005 44.556 38.469 44.556 38.469s21.8-18.377 22.374-18.851c14.917-12.544 24.478-46.587 2.735-69.582" transform="translate(0 415.001)" style="fill:url(#ww8xsndt8f)"/>
    </g>
</svg>
