<svg xmlns="http://www.w3.org/2000/svg" width="91" height="90" viewBox="0 0 91 90">
    <defs>
        <linearGradient id="8uoywcb33a" x1=".708" y1="-.018" x2=".723" y2=".789" gradientUnits="objectBoundingBox">
            <stop offset="0" stop-color="#3bcabc"/>
            <stop offset="1" stop-color="#3bcabc" stop-opacity=".349"/>
        </linearGradient>
        <linearGradient id="y3av23sw9b" x1=".186" y1=".656" x2=".937" y2=".065" gradientUnits="objectBoundingBox">
            <stop offset="0" stop-color="#702bf7"/>
            <stop offset="1" stop-color="#702bf7" stop-opacity=".349"/>
        </linearGradient>
        <linearGradient id="3fx4pckqlc" x1=".157" y1=".713" x2=".745" y2=".227" gradientUnits="objectBoundingBox">
            <stop offset="0" stop-color="#702bf7"/>
            <stop offset="1" stop-color="#702bf7" stop-opacity=".549"/>
        </linearGradient>
        <linearGradient id="y7sx5138xe" x1=".5" x2=".5" y2="1" gradientUnits="objectBoundingBox">
            <stop offset="0" stop-color="#fff"/>
            <stop offset="1" stop-color="#fff" stop-opacity=".529"/>
        </linearGradient>
        <filter id="18a33p24xd" x="26.844" y="30.074" width="31.475" height="42.957" filterUnits="userSpaceOnUse">
            <feOffset dx="4" dy="3"/>
            <feGaussianBlur stdDeviation="4" result="blur"/>
            <feFlood flood-color="#503c94" flood-opacity=".4"/>
            <feComposite operator="in" in2="blur"/>
            <feComposite in="SourceGraphic"/>
        </filter>
        <filter id="b46fhrxf3f" x="30.669" y="54.668" width="24.152" height="24.152" filterUnits="userSpaceOnUse">
            <feOffset dx="4" dy="3"/>
            <feGaussianBlur stdDeviation="3" result="blur-2"/>
            <feFlood flood-color="#503c94" flood-opacity=".4"/>
            <feComposite operator="in" in2="blur-2"/>
            <feComposite in="SourceGraphic"/>
        </filter>
    </defs>
    <g data-name="그룹 2699">
        <path data-name="빼기 18" d="M54.5 50.08a23.211 23.211 0 0 0-2.374-28.726 21.169 21.169 0 0 0-7.072-4.923 20.557 20.557 0 0 0-15.324-.307 20.988 20.988 0 0 0-6.569 4c-.438.388-.867.8-1.276 1.231a20.738 20.738 0 0 0-15.114-6.567h-.01A20.528 20.528 0 0 0 0 15.932a21.912 21.912 0 0 1 4.753-8.785 21.332 21.332 0 0 1 7.28-5.359A20.472 20.472 0 0 1 20.42 0h.011a20.427 20.427 0 0 1 8.041 1.642 21.2 21.2 0 0 1 7.068 4.924c.407-.426.836-.84 1.276-1.231a20.992 20.992 0 0 1 6.569-4 20.556 20.556 0 0 1 15.324.307 21.176 21.176 0 0 1 7.073 4.923 23.185 23.185 0 0 1 1.173 30.348c-.334.424-.729.877-1.173 1.345l-.046.047-.054.055z" transform="translate(16.679 4.299)" style="fill:url(#8uoywcb33a);stroke:transparent;stroke-miterlimit:10"/>
        <g data-name="그룹 2677">
            <path data-name="빼기 17" d="m30.123 38.378.116-.123L0 6.563c.4-.422.832-.836 1.277-1.23a20.965 20.965 0 0 1 6.567-4 20.538 20.538 0 0 1 15.325.307 21.178 21.178 0 0 1 7.073 4.922 22.847 22.847 0 0 1 6.247 14.993 23 23 0 0 1-5.074 15.356c-.347.439-.743.891-1.173 1.344z" transform="translate(38.559 19.055)" style="fill:url(#y3av23sw9b);stroke:transparent;stroke-miterlimit:10"/>
            <path data-name="패스 2728" d="M125.269 134.758c-7.9 8.9-7.293 22.9.906 31.488l26.645 27.923a4.434 4.434 0 0 0 6.47 0l27.006-28.3-30.241-31.691a20.717 20.717 0 0 0-30.786.581" transform="translate(-117.497 -108.559)" style="fill:url(#3fx4pckqlc)"/>
        </g>
        <g data-name="그룹 2702">
            <g style="filter:url(#18a33p24xd)" transform="translate(.004 .005)">
                <path data-name="패스 2741" d="M3.738 0a3.522 3.522 0 0 1 3.737 3.258L6.709 15.7a2.98 2.98 0 0 1-2.971 3.261A3.046 3.046 0 0 1 .68 15.7L0 3.258A3.522 3.522 0 0 1 3.738 0z" transform="translate(34.84 39.07)" style="fill:url(#y7sx5138xe)"/>
            </g>
            <g style="filter:url(#b46fhrxf3f)" transform="translate(.004 .005)">
                <circle data-name="타원 541" cx="3.076" cy="3.076" r="3.076" transform="translate(35.67 60.67)" style="fill:url(#y7sx5138xe)"/>
            </g>
        </g>
    </g>
</svg>
