<svg xmlns="http://www.w3.org/2000/svg" width="880" height="880" viewBox="0 0 880 880">
    <defs>
        <linearGradient id="k5xpa4bxga" x1=".5" x2=".5" y2="1" gradientUnits="objectBoundingBox">
            <stop offset="0" stop-color="#e1d2ff"/>
            <stop offset="1" stop-color="#f2ecff"/>
        </linearGradient>
        <linearGradient id="9a5lwksg3b" x1=".5" x2=".5" y2="1" gradientUnits="objectBoundingBox">
            <stop offset="0" stop-color="#c7acfb"/>
            <stop offset="1" stop-color="#d7c4ff"/>
        </linearGradient>
        <linearGradient id="pt3mdzt9qc" x1=".321" y1=".152" x2=".5" y2="1" gradientUnits="objectBoundingBox">
            <stop offset="0" stop-color="#c8f1ec"/>
            <stop offset="1" stop-color="#b8ece7"/>
        </linearGradient>
        <linearGradient id="ppsoqqbpnd" x1=".5" x2=".5" y2="1" gradientUnits="objectBoundingBox">
            <stop offset="0" stop-color="#9ce4dd"/>
            <stop offset="1" stop-color="#81ded5"/>
        </linearGradient>
        <linearGradient id="221cvoozie" x1=".5" x2=".5" y2="1" gradientUnits="objectBoundingBox">
            <stop offset="0" stop-color="#cdf2ee"/>
            <stop offset="1" stop-color="#9ce4dd" stop-opacity=".729"/>
        </linearGradient>
        <linearGradient id="pryln00wpf" x1=".528" y1="-.052" x2=".5" y2="1" gradientUnits="objectBoundingBox">
            <stop offset="0" stop-color="#96e2db"/>
            <stop offset="1" stop-color="#81ded5"/>
        </linearGradient>
    </defs>
    <path data-name="패스 2416" d="M236.915 141.192c-1.021.842-3.726 1.212-4.9 1.614-15.719 5.014-34.121 6.75-49.789-.121-6.763-2.954-12.736-7.28-18.555-11.765-6.1-4.773-11.892-9.9-17.506-15.236-8.242-7.758-16.13-15.963-24.143-24.046C102.118 71.584 61.617 31.039 30.66 0 25.378 5.576 20.3 11.356 15.553 17.462 11.213 23.16 7 29.106 4.169 35.773c-6.635 15.561-4.569 33.993.74 49.842a35.494 35.494 0 0 0 1.2 4c0 .038 0 .077.051.077L89.305 172.8c32.029 32.053 83.556 32.577 115.1 1.174 11.052-11 22-22.03 32.615-32.864-.026.038-.077.038-.1.083" transform="translate(298.543 681.574)" style="fill:url(#k5xpa4bxga)"/>
    <path data-name="패스 2417" d="M177.714 16.291c-5.818-4.486-11.866-8.773-18.552-11.72-15.7-6.91-34.07-5.175-49.792-.16-1.276.4-4.083.81-5.027 1.735L23.392 87.11c-31.518 31.49-31.135 82.99.842 115.116 11.228 11.235 22.433 22.394 33.457 33.183a3.649 3.649 0 0 1-.562-.925c-.025 0-.025-.045-.025-.083a30.778 30.778 0 0 1-1.225-4c-5.308-15.848-7.35-34.281-.74-49.841 2.832-6.667 7.043-12.614 11.406-18.3 4.747-6.112 9.825-11.893 15.085-17.469 7.629-8.039 85.926-85.768 113.537-113.253-5.588-5.333-11.382-10.463-17.455-15.242" transform="translate(247.601 536.785)" style="fill:url(#9a5lwksg3b)"/>
    <path data-name="패스 2418" d="M231.725 116.9c-.409-1.175-.842-3.841-1.684-4.888l-91.492-91.476c-27-27.007-70.282-27.409-96.874-1.014C27.614 33.507 13.5 47.575 0 61.4c.919-.931 3.777-1.333 5-1.742 15.72-5.015 34.122-6.744 49.816.166 6.711 2.947 12.736 7.228 18.555 11.72 6.1 4.772 11.866 9.9 17.455 15.235 8.243 7.765 16.156 15.97 24.168 24.053 19.88 20.046 60.176 60.387 91.159 91.388 5.205-5.5 10.258-11.2 14.906-17.175 4.363-5.742 8.574-11.682 11.406-18.355 6.61-15.568 4.568-33.987-.74-49.8" transform="translate(351.896 481.546)" style="fill:url(#k5xpa4bxga)"/>
    <path data-name="패스 2419" d="M193.215 75.553a82.67 82.67 0 0 0-22.688-42.32C159.349 22 148.146 10.8 137.095 0a.941.941 0 0 1 .127.172c.842 1.04 1.3 3.713 1.71 4.887 5.282 15.81 7.349 34.236.715 49.8-2.807 6.674-7.018 12.62-11.381 18.356C123.62 79.189 8.446 195.441 0 203.888c5.614 5.334 11.407 10.464 17.506 15.242 5.818 4.485 11.818 8.8 18.555 11.758 15.668 6.872 34.07 5.136 49.789.121 1.174-.408 3.879-.765 4.9-1.621.025-.032.076-.032.1-.077L131.1 189.1l40.4-40.463a80.373 80.373 0 0 0 21.719-73.084" transform="translate(444.708 593.356)" style="fill:url(#9a5lwksg3b)"/>
    <g data-name="logo_4_01_result">
        <path data-name="패스 2416" d="M237.554 141.572c-1.024.845-3.736 1.215-4.913 1.618-15.762 5.028-34.213 6.768-49.923-.122-6.781-2.962-12.771-7.3-18.6-11.8-6.118-4.781-11.929-9.924-17.559-15.268-8.264-7.779-16.174-16.006-24.208-24.111C102.393 71.777 61.783 31.123 30.743 0 25.447 5.591 20.355 11.387 15.6 17.51c-4.357 5.713-8.579 11.675-11.419 18.36-6.653 15.6-4.58 34.084.742 49.976a35.59 35.59 0 0 0 1.2 4.011c0 .038 0 .077.051.077l83.369 83.331c32.115 32.14 83.781 32.664 115.407 1.177a3676.366 3676.366 0 0 0 32.7-32.952c-.026.038-.077.038-.1.083" transform="translate(535.272 443.078)" style="fill:url(#pt3mdzt9qc)"/>
        <path data-name="패스 2417" d="M178.193 16.335c-5.834-4.5-11.9-8.8-18.6-11.752-15.739-6.929-34.162-5.189-49.926-.16-1.279.4-4.094.812-5.04 1.74L23.455 87.345c-31.6 31.571-31.219 83.209.845 115.426 11.258 11.266 22.494 22.454 33.548 33.272a3.66 3.66 0 0 1-.564-.927c-.025 0-.025-.045-.025-.083a30.862 30.862 0 0 1-1.228-4.011c-5.323-15.891-7.37-34.373-.742-49.975 2.84-6.685 7.062-12.648 11.437-18.354 4.76-6.129 9.851-11.925 15.126-17.516 7.65-8.061 86.157-86 113.843-113.559-5.6-5.348-11.412-10.492-17.5-15.283" transform="translate(484.192 297.899)" style="fill:url(#ppsoqqbpnd)"/>
        <path data-name="패스 2418" d="M232.35 117.21c-.41-1.178-.844-3.852-1.689-4.9l-91.739-91.718C111.85-6.488 68.451-6.891 41.787 19.575 27.688 33.6 13.536 47.7 0 61.566c.921-.934 3.787-1.337 5.015-1.746 15.762-5.029 34.214-6.762 49.95.166 6.729 2.955 12.771 7.248 18.6 11.752 6.115 4.785 11.9 9.929 17.5 15.276 8.265 7.786 16.2 16.013 24.234 24.118 19.933 20.1 60.339 60.55 91.4 91.635 5.219-5.514 10.286-11.227 14.946-17.222 4.375-5.757 8.6-11.713 11.437-18.4 6.627-15.61 4.58-34.079-.742-49.931" transform="translate(588.768 242.511)" style="fill:url(#221cvoozie)"/>
        <path data-name="패스 2419" d="M193.735 75.757a82.893 82.893 0 0 0-22.749-42.434C159.779 22.058 148.546 10.83 137.464 0a.941.941 0 0 1 .127.173c.845 1.043 1.305 3.723 1.714 4.9 5.3 15.853 7.369 34.328.716 49.931-2.814 6.692-7.037 12.654-11.412 18.405C123.953 79.4 8.469 195.968 0 204.438c5.629 5.348 11.438 10.492 17.553 15.283 5.834 4.5 11.849 8.828 18.6 11.79 15.71 6.89 34.161 5.15 49.924.122 1.177-.409 3.889-.768 4.913-1.625.025-.032.077-.032.1-.077l40.354-40.322 40.508-40.572a80.589 80.589 0 0 0 21.777-73.281" transform="translate(681.831 354.622)" style="fill:url(#pryln00wpf)"/>
    </g>
    <g data-name="logo_4_01_result">
        <path data-name="패스 2416" d="M237.554 141.572c-1.024.845-3.736 1.215-4.913 1.618-15.762 5.028-34.213 6.768-49.923-.122-6.781-2.962-12.771-7.3-18.6-11.8-6.118-4.781-11.929-9.924-17.559-15.268-8.264-7.779-16.174-16.006-24.208-24.111C102.393 71.777 61.783 31.123 30.743 0 25.447 5.591 20.355 11.387 15.6 17.51c-4.357 5.713-8.579 11.675-11.419 18.36-6.653 15.6-4.58 34.084.742 49.976a35.59 35.59 0 0 0 1.2 4.011c0 .038 0 .077.051.077l83.369 83.331c32.115 32.14 83.781 32.664 115.407 1.177a3676.366 3676.366 0 0 0 32.7-32.952c-.026.038-.077.038-.1.083" transform="translate(55.272 440.078)" style="fill:url(#pt3mdzt9qc)"/>
        <path data-name="패스 2417" d="M178.193 16.335c-5.834-4.5-11.9-8.8-18.6-11.752-15.739-6.929-34.162-5.189-49.926-.16-1.279.4-4.094.812-5.04 1.74L23.455 87.345c-31.6 31.571-31.219 83.209.845 115.426 11.258 11.266 22.494 22.454 33.548 33.272a3.66 3.66 0 0 1-.564-.927c-.025 0-.025-.045-.025-.083a30.862 30.862 0 0 1-1.228-4.011c-5.323-15.891-7.37-34.373-.742-49.975 2.84-6.685 7.062-12.648 11.437-18.354 4.76-6.129 9.851-11.925 15.126-17.516 7.65-8.061 86.157-86 113.843-113.559-5.6-5.348-11.412-10.492-17.5-15.283" transform="translate(4.192 294.899)" style="fill:url(#ppsoqqbpnd)"/>
        <path data-name="패스 2418" d="M232.35 117.21c-.41-1.178-.844-3.852-1.689-4.9l-91.739-91.718C111.85-6.488 68.451-6.891 41.787 19.575 27.688 33.6 13.536 47.7 0 61.566c.921-.934 3.787-1.337 5.015-1.746 15.762-5.029 34.214-6.762 49.95.166 6.729 2.955 12.771 7.248 18.6 11.752 6.115 4.785 11.9 9.929 17.5 15.276 8.265 7.786 16.2 16.013 24.234 24.118 19.933 20.1 60.339 60.55 91.4 91.635 5.219-5.514 10.286-11.227 14.946-17.222 4.375-5.757 8.6-11.713 11.437-18.4 6.627-15.61 4.58-34.079-.742-49.931" transform="translate(108.768 239.511)" style="fill:url(#221cvoozie)"/>
        <path data-name="패스 2419" d="M193.735 75.757a82.893 82.893 0 0 0-22.749-42.434C159.779 22.058 148.546 10.83 137.464 0a.941.941 0 0 1 .127.173c.845 1.043 1.305 3.723 1.714 4.9 5.3 15.853 7.369 34.328.716 49.931-2.814 6.692-7.037 12.654-11.412 18.405C123.953 79.4 8.469 195.968 0 204.438c5.629 5.348 11.438 10.492 17.553 15.283 5.834 4.5 11.849 8.828 18.6 11.79 15.71 6.89 34.161 5.15 49.924.122 1.177-.409 3.889-.768 4.913-1.625.025-.032.077-.032.1-.077l40.354-40.322 40.508-40.572a80.589 80.589 0 0 0 21.777-73.281" transform="translate(201.831 351.622)" style="fill:url(#pryln00wpf)"/>
    </g>
    <g data-name="logo_4_01_result">
        <path data-name="패스 2416" d="M236.915 141.192c-1.021.842-3.726 1.212-4.9 1.614-15.719 5.014-34.121 6.75-49.789-.121-6.763-2.954-12.736-7.28-18.555-11.765-6.1-4.773-11.892-9.9-17.506-15.236-8.242-7.758-16.13-15.963-24.143-24.046C102.118 71.584 61.617 31.039 30.66 0 25.378 5.576 20.3 11.356 15.553 17.462 11.213 23.16 7 29.106 4.169 35.773c-6.635 15.561-4.569 33.993.74 49.842a35.494 35.494 0 0 0 1.2 4c0 .038 0 .077.051.077L89.305 172.8c32.029 32.053 83.556 32.577 115.1 1.174 11.052-11 22-22.03 32.615-32.864-.026.038-.077.038-.1.083" transform="translate(292.544 201.574)" style="fill:url(#k5xpa4bxga)"/>
        <path data-name="패스 2417" d="M177.714 16.291c-5.818-4.486-11.866-8.773-18.552-11.72-15.7-6.91-34.07-5.175-49.792-.16-1.276.4-4.083.81-5.027 1.735L23.392 87.11c-31.518 31.49-31.135 82.99.842 115.116 11.228 11.235 22.433 22.394 33.457 33.183a3.649 3.649 0 0 1-.562-.925c-.025 0-.025-.045-.025-.083a30.778 30.778 0 0 1-1.225-4c-5.308-15.848-7.35-34.281-.74-49.841 2.832-6.667 7.043-12.614 11.406-18.3 4.747-6.112 9.825-11.893 15.085-17.469 7.629-8.039 85.926-85.768 113.537-113.253-5.588-5.333-11.382-10.463-17.455-15.242" transform="translate(241.602 56.785)" style="fill:url(#9a5lwksg3b)"/>
        <path data-name="패스 2418" d="M231.725 116.9c-.409-1.175-.842-3.841-1.684-4.888l-91.492-91.476c-27-27.007-70.282-27.409-96.874-1.014C27.614 33.507 13.5 47.575 0 61.4c.919-.931 3.777-1.333 5-1.742 15.72-5.015 34.122-6.744 49.816.166 6.711 2.947 12.736 7.228 18.555 11.72 6.1 4.772 11.866 9.9 17.455 15.235 8.243 7.765 16.156 15.97 24.168 24.053 19.88 20.046 60.176 60.387 91.159 91.388 5.205-5.5 10.258-11.2 14.906-17.175 4.363-5.742 8.574-11.682 11.406-18.355 6.61-15.568 4.568-33.987-.74-49.8" transform="translate(345.897 1.546)" style="fill:url(#k5xpa4bxga)"/>
        <path data-name="패스 2419" d="M193.215 75.553a82.67 82.67 0 0 0-22.688-42.32C159.349 22 148.146 10.8 137.095 0a.941.941 0 0 1 .127.172c.842 1.04 1.3 3.713 1.71 4.887 5.282 15.81 7.349 34.236.715 49.8-2.807 6.674-7.018 12.62-11.381 18.356C123.62 79.189 8.446 195.441 0 203.888c5.614 5.334 11.407 10.464 17.506 15.242 5.818 4.485 11.818 8.8 18.555 11.758 15.668 6.872 34.07 5.136 49.789.121 1.174-.408 3.879-.765 4.9-1.621.025-.032.076-.032.1-.077L131.1 189.1l40.4-40.463a80.373 80.373 0 0 0 21.719-73.084" transform="translate(438.709 113.356)" style="fill:url(#9a5lwksg3b)"/>
    </g>
</svg>
